<svg width="10" height="20" viewBox="0 0 10 20" fill="none" xmlns="http://www.w3.org/2000/svg">
<path d="M6.96841 0.016741C4.98767 0.154341 3.62173 1.26474 3.14407 3.12634C3.06549 3.43274 3.00693 3.79114 2.98151 4.11994C2.97689 4.17914 2.97149 4.24234 2.96918 4.25994C2.96687 4.27754 2.96225 4.97434 2.95994 5.80794L2.95455 7.32394L1.47766 7.32634L0 7.32794V9.09994V10.8719H1.4792H2.9584V15.4319V19.9919H4.72265H6.4869L6.48844 15.4335L6.49076 10.8759L7.96379 10.8735L9.43606 10.8719L9.44068 10.8415C9.4453 10.8111 9.87673 7.33994 9.87673 7.33194C9.87673 7.32954 9.11479 7.32714 8.18413 7.32634L6.49076 7.32394V6.06794C6.49076 4.72474 6.49076 4.72234 6.53005 4.47994C6.58244 4.15354 6.68875 3.91754 6.86441 3.73594C7.07704 3.51514 7.36364 3.39434 7.80663 3.33834C7.89445 3.32714 8.05162 3.32474 8.95455 3.32234L10 3.31914V1.73274V0.145541L9.96764 0.140741C9.66564 0.095141 8.80586 0.037541 8.12019 0.015941C7.82358 0.00714096 7.10478 0.00714096 6.96841 0.016741Z" fill="white"/>
</svg>
