<svg width="367" height="352" viewBox="0 0 367 352" fill="none" xmlns="http://www.w3.org/2000/svg">
<g style="mix-blend-mode:multiply" opacity="0.2">
<path d="M60.3 64C66.8 63.7 73.3 63.6 79.8 63.8C90.8 64.1 99.7 74.6 99.7 86.3C99.7 89.5 99 92.4 97.9 95C100.2 99.8 102.5 104.6 104.8 109.5C100 107.4 95.3 105.4 90.5 103.5C87.4 105.4 83.8 106.4 79.9 106.3C73.4 106.1 66.9 106.2 60.4 106.5C49.4 107 40.5 98.6 40.5 86.9C40.5 75.2 49.4 64.5 60.4 64H60.3Z" fill="black"/>
</g>
<path d="M59.3 62.9H80.1C91.8 62.9 101.3 72.4 101.3 84.1C101.3 95.8 100.6 90.3 99.3 93L106.6 106.8L91.3 102.1C88 104.2 84.1 105.4 80 105.4H59.2C47.5 105.4 38 95.9 38 84.2C38 72.5 47.5 63 59.2 63L59.3 62.9Z" fill="#FF6352"/>
<path d="M79.9999 62.9H77.7999L42.8999 97.8C44.5999 99.9 46.6999 101.6 49.0999 102.9L87.5999 64.4C85.1999 63.5 82.6999 63 79.9999 63V62.9Z" fill="#F44A40"/>
<path d="M99.3 93C99.7 92.1 100 91.3 100.3 90.3L86.2 104.4C88 103.8 89.8 103 91.3 102L97.8 104L102.6 99.2L99.2 92.9L99.3 93Z" fill="#F44A40"/>
<path d="M59.3 62.9C56.5 62.9 53.8 63.5 51.3 64.5L39.6 76.2C38.6 78.7 38 81.4 38 84.2C38 87 38.2 87.2 38.5 88.6L64.2 62.9H59.3Z" fill="#F44A40"/>
<path d="M100 77C99.1 74.4 97.6 72 95.8 69.9L60.3 105.4H71.6001L100 77Z" fill="#F44A40"/>
<path d="M56.5079 83.0444C55.897 83.0444 55.423 82.8864 55.0859 82.5704C54.7699 82.2333 54.6119 81.7593 54.6119 81.1484V80.6112C54.6119 80.0003 54.7699 79.5368 55.0859 79.2208C55.423 78.8837 55.897 78.7152 56.5079 78.7152H56.9187C57.5296 78.7152 57.9931 78.8837 58.3091 79.2208C58.6462 79.5368 58.8147 80.0003 58.8147 80.6112V81.1484C58.8147 81.7593 58.6462 82.2333 58.3091 82.5704C57.9931 82.8864 57.5296 83.0444 56.9187 83.0444H56.5079ZM56.5079 95.4C55.897 95.4 55.423 95.242 55.0859 94.926C54.7699 94.5889 54.6119 94.1149 54.6119 93.504V92.9668C54.6119 92.3559 54.7699 91.8924 55.0859 91.5764C55.423 91.2393 55.897 91.0708 56.5079 91.0708H56.9187C57.5296 91.0708 57.9931 91.2393 58.3091 91.5764C58.6462 91.8924 58.8147 92.3559 58.8147 92.9668V93.504C58.8147 94.1149 58.6462 94.5889 58.3091 94.926C57.9931 95.242 57.5296 95.4 56.9187 95.4H56.5079ZM78.8945 74.3544C79.4423 74.6283 79.7583 75.0601 79.8425 75.65C79.9479 76.2399 79.8004 76.7771 79.4001 77.2616C79.1263 77.6408 78.7681 77.8515 78.3257 77.8936C77.9044 77.9357 77.4725 77.8515 77.0301 77.6408C76.5245 77.4091 75.9873 77.23 75.4185 77.1036C74.8708 76.9772 74.2915 76.914 73.6805 76.914C72.5429 76.914 71.5212 77.0931 70.6153 77.4512C69.7305 77.8093 68.9721 78.3255 68.3401 78.9996C67.7081 79.6527 67.2236 80.4321 66.8865 81.338C66.5705 82.2439 66.4125 83.2445 66.4125 84.34C66.4125 85.6251 66.5916 86.7416 66.9497 87.6896C67.3289 88.6376 67.8451 89.4276 68.4981 90.0596C69.1512 90.6916 69.9201 91.1656 70.8049 91.4816C71.6897 91.7765 72.6483 91.924 73.6805 91.924C74.2493 91.924 74.8181 91.8713 75.3869 91.766C75.9557 91.6607 76.5035 91.4711 77.0301 91.1972C77.4725 90.9865 77.9044 90.9128 78.3257 90.976C78.7681 91.0392 79.1368 91.2604 79.4317 91.6396C79.8531 92.1663 80.0005 92.714 79.8741 93.2828C79.7688 93.8305 79.4528 94.2308 78.9261 94.4836C78.3784 94.7575 77.8096 94.9892 77.2197 95.1788C76.6509 95.3473 76.0716 95.4737 75.4817 95.558C74.8919 95.6633 74.2915 95.716 73.6805 95.716C72.1637 95.716 70.7207 95.4737 69.3513 94.9892C68.0031 94.5047 66.7917 93.7884 65.7173 92.8404C64.664 91.8924 63.8319 90.7127 63.2209 89.3012C62.61 87.8687 62.3045 86.2149 62.3045 84.34C62.3045 82.7179 62.5784 81.2221 63.1261 79.8528C63.6949 78.4835 64.4849 77.3037 65.4961 76.3136C66.5284 75.3024 67.7397 74.5229 69.1301 73.9752C70.5205 73.4064 72.0373 73.122 73.6805 73.122C74.6075 73.122 75.5133 73.2273 76.3981 73.438C77.2829 73.6487 78.1151 73.9541 78.8945 74.3544Z" fill="white"/>
<g style="mix-blend-mode:multiply" opacity="0.6">
<g style="mix-blend-mode:multiply" opacity="0.2">
<path d="M326 18.9C293.3 16.2 260.5 16 227.8 18.5C216.6 19.3 207.6 29.9 207.6 41.6C207.6 44.8 208.3 47.7 209.5 50.3C207.2 55.1 204.9 60 202.5 64.8C207.3 62.7 212.2 60.6 217 58.6C220.1 60.4 223.8 61.3 227.8 61C260.5 58.5 293.3 58.7 326 61.4C337.1 62.3 346.2 53.9 346.2 42.2C346.2 30.5 337.2 19.9 326 19V18.9Z" fill="black"/>
</g>
</g>
<path d="M327.2 16.4H224C212.3 16.4 202.8 25.9 202.8 37.6C202.8 49.3 203.5 43.8 204.8 46.5L197.5 60.3L212.8 55.6C216.1 57.7 220 58.9 224.1 58.9H327.3C339 58.9 348.5 49.4 348.5 37.7C348.5 26 339 16.5 327.3 16.5L327.2 16.4Z" fill="#FF6352"/>
<path d="M203.3 42.5C203.6 43.9 204.1 45.2 204.7 46.5L197.9 59.3L240.8 16.4H229.5L203.4 42.5H203.3Z" fill="#F44A40"/>
<path d="M265.8 16.4H254.5L214.4 56.5C217.1 57.9 220.2 58.7 223.4 58.8L265.9 16.3L265.8 16.4Z" fill="#F44A40"/>
<path d="M315.7 16.4H304.4L261.9 58.9H273.2L315.7 16.4Z" fill="#F44A40"/>
<path d="M236.9 58.9H248.3L290.7 16.4H279.4L236.9 58.9Z" fill="#F44A40"/>
<path d="M348.1 34C347.6 31 346.5 28.3 344.9 25.9L311.9 58.9H323.2L348.1 34Z" fill="#F44A40"/>
<path d="M337.8 19.3C335.2 17.8 332.3 16.8 329.2 16.5L286.8 58.9H298.1L337.7 19.3H337.8Z" fill="#F44A40"/>
<path d="M225.23 50.851C223.592 50.851 222.118 50.6521 220.807 50.2543C219.497 49.8331 218.245 49.1077 217.052 48.0781C216.747 47.8207 216.513 47.5282 216.35 47.2006C216.186 46.873 216.104 46.5454 216.104 46.2178C216.104 45.6796 216.291 45.2116 216.666 44.8138C217.063 44.3926 217.555 44.182 218.14 44.182C218.584 44.182 218.982 44.3224 219.333 44.6032C220.222 45.3286 221.1 45.8785 221.966 46.2529C222.855 46.6273 223.943 46.8145 225.23 46.8145C226.096 46.8145 226.891 46.6858 227.617 46.4284C228.342 46.1476 228.927 45.7849 229.372 45.3403C229.816 44.8723 230.039 44.3458 230.039 43.7608C230.039 43.0588 229.828 42.4621 229.407 41.9707C228.986 41.4793 228.342 41.0698 227.476 40.7422C226.611 40.3912 225.511 40.1221 224.177 39.9349C222.913 39.7477 221.802 39.4669 220.842 39.0925C219.883 38.6947 219.076 38.2033 218.421 37.6183C217.789 37.0099 217.309 36.3079 216.981 35.5123C216.654 34.6933 216.49 33.7807 216.49 32.7745C216.49 31.2535 216.876 29.9548 217.648 28.8784C218.444 27.802 219.509 26.983 220.842 26.4214C222.176 25.8598 223.65 25.579 225.265 25.579C226.786 25.579 228.19 25.813 229.477 26.281C230.787 26.7256 231.852 27.2989 232.671 28.0009C233.35 28.5391 233.689 29.1592 233.689 29.8612C233.689 30.376 233.49 30.844 233.092 31.2652C232.695 31.6864 232.227 31.897 231.688 31.897C231.337 31.897 231.021 31.7917 230.741 31.5811C230.366 31.2535 229.863 30.9493 229.231 30.6685C228.6 30.3643 227.933 30.1186 227.231 29.9314C226.529 29.7208 225.873 29.6155 225.265 29.6155C224.259 29.6155 223.405 29.7442 222.703 30.0016C222.024 30.259 221.509 30.61 221.158 31.0546C220.807 31.4992 220.632 32.014 220.632 32.599C220.632 33.301 220.831 33.886 221.229 34.354C221.65 34.7986 222.246 35.1613 223.019 35.4421C223.791 35.6995 224.715 35.9335 225.792 36.1441C227.196 36.4015 228.424 36.7057 229.477 37.0567C230.553 37.4077 231.443 37.864 232.145 38.4256C232.847 38.9638 233.373 39.6541 233.724 40.4965C234.075 41.3155 234.251 42.3217 234.251 43.5151C234.251 45.0361 233.829 46.3465 232.987 47.4463C232.145 48.5461 231.033 49.3885 229.653 49.9735C228.295 50.5585 226.821 50.851 225.23 50.851ZM260.88 38.215C260.88 39.97 260.588 41.608 260.003 43.129C259.418 44.65 258.587 45.9955 257.511 47.1655C256.458 48.3121 255.194 49.213 253.72 49.8682C252.269 50.5234 250.678 50.851 248.946 50.851C247.215 50.851 245.624 50.5234 244.173 49.8682C242.722 49.213 241.458 48.3121 240.382 47.1655C239.329 45.9955 238.51 44.65 237.925 43.129C237.34 41.608 237.047 39.97 237.047 38.215C237.047 36.46 237.34 34.822 237.925 33.301C238.51 31.78 239.329 30.4462 240.382 29.2996C241.458 28.1296 242.722 27.217 244.173 26.5618C245.624 25.9066 247.215 25.579 248.946 25.579C250.678 25.579 252.269 25.9066 253.72 26.5618C255.194 27.217 256.458 28.1296 257.511 29.2996C258.587 30.4462 259.418 31.78 260.003 33.301C260.588 34.822 260.88 36.46 260.88 38.215ZM256.317 38.215C256.317 36.6472 256.001 35.2315 255.37 33.9679C254.738 32.6809 253.872 31.663 252.772 30.9142C251.672 30.1654 250.397 29.791 248.946 29.791C247.496 29.791 246.22 30.1654 245.12 30.9142C244.021 31.663 243.155 32.6692 242.523 33.9328C241.915 35.1964 241.61 36.6238 241.61 38.215C241.61 39.7828 241.915 41.2102 242.523 42.4972C243.155 43.7608 244.021 44.767 245.12 45.5158C246.22 46.2646 247.496 46.639 248.946 46.639C250.397 46.639 251.672 46.2646 252.772 45.5158C253.872 44.767 254.738 43.7608 255.37 42.4972C256.001 41.2102 256.317 39.7828 256.317 38.215ZM267.437 50.5C266.781 50.5 266.196 50.3011 265.682 49.9033C265.167 49.4821 264.909 48.9673 264.909 48.3589V28.0711C264.909 27.4627 265.108 26.9596 265.506 26.5618C265.927 26.1406 266.442 25.93 267.051 25.93H277.159C278.376 25.93 279.511 26.2576 280.564 26.9128C281.64 27.5446 282.506 28.4338 283.161 29.5804C283.817 30.7036 284.144 32.0023 284.144 33.4765C284.144 34.3657 283.957 35.2315 283.583 36.0739C283.232 36.9163 282.74 37.6768 282.108 38.3554C281.5 39.034 280.81 39.5605 280.038 39.9349L280.073 39.1276C280.728 39.4786 281.266 39.8998 281.687 40.3912C282.132 40.8592 282.471 41.374 282.705 41.9356C282.963 42.4738 283.115 43.0588 283.161 43.6906C283.255 44.2756 283.314 44.7904 283.337 45.235C283.384 45.6796 283.454 46.054 283.548 46.3582C283.665 46.6624 283.875 46.8964 284.179 47.0602C284.694 47.3644 285.01 47.809 285.127 48.394C285.267 48.9556 285.139 49.4587 284.741 49.9033C284.484 50.2075 284.156 50.4064 283.758 50.5C283.36 50.5702 282.963 50.5702 282.565 50.5C282.167 50.4064 281.839 50.2894 281.582 50.149C281.184 49.915 280.786 49.5757 280.389 49.1311C279.991 48.6631 279.663 48.043 279.406 47.2708C279.172 46.4986 279.055 45.5041 279.055 44.2873C279.055 43.8895 278.985 43.5268 278.844 43.1992C278.704 42.8482 278.505 42.5557 278.247 42.3217C277.99 42.0643 277.662 41.8771 277.265 41.7601C276.867 41.6197 276.399 41.5495 275.861 41.5495H268.77L269.297 40.7422V48.3589C269.297 48.9673 269.133 49.4821 268.806 49.9033C268.478 50.3011 268.022 50.5 267.437 50.5ZM268.806 37.9342H276.984C277.405 37.9342 277.815 37.747 278.212 37.3726C278.61 36.9748 278.938 36.4483 279.195 35.7931C279.453 35.1145 279.581 34.3774 279.581 33.5818C279.581 32.5522 279.3 31.6981 278.739 31.0195C278.201 30.3175 277.616 29.9665 276.984 29.9665H268.876L269.297 28.8433V38.7766L268.806 37.9342ZM291.534 50.5C290.878 50.5 290.293 50.3011 289.779 49.9033C289.264 49.4821 289.006 48.9673 289.006 48.3589V28.0711C289.006 27.4627 289.205 26.9596 289.603 26.5618C290.024 26.1406 290.539 25.93 291.147 25.93H301.256C302.473 25.93 303.608 26.2576 304.661 26.9128C305.737 27.5446 306.603 28.4338 307.258 29.5804C307.914 30.7036 308.241 32.0023 308.241 33.4765C308.241 34.3657 308.054 35.2315 307.68 36.0739C307.329 36.9163 306.837 37.6768 306.205 38.3554C305.597 39.034 304.907 39.5605 304.134 39.9349L304.17 39.1276C304.825 39.4786 305.363 39.8998 305.784 40.3912C306.229 40.8592 306.568 41.374 306.802 41.9356C307.059 42.4738 307.212 43.0588 307.258 43.6906C307.352 44.2756 307.41 44.7904 307.434 45.235C307.481 45.6796 307.551 46.054 307.644 46.3582C307.761 46.6624 307.972 46.8964 308.276 47.0602C308.791 47.3644 309.107 47.809 309.224 48.394C309.364 48.9556 309.236 49.4587 308.838 49.9033C308.58 50.2075 308.253 50.4064 307.855 50.5C307.457 50.5702 307.059 50.5702 306.662 50.5C306.264 50.4064 305.936 50.2894 305.679 50.149C305.281 49.915 304.883 49.5757 304.485 49.1311C304.088 48.6631 303.76 48.043 303.503 47.2708C303.269 46.4986 303.152 45.5041 303.152 44.2873C303.152 43.8895 303.081 43.5268 302.941 43.1992C302.801 42.8482 302.602 42.5557 302.344 42.3217C302.087 42.0643 301.759 41.8771 301.362 41.7601C300.964 41.6197 300.496 41.5495 299.958 41.5495H292.867L293.394 40.7422V48.3589C293.394 48.9673 293.23 49.4821 292.902 49.9033C292.575 50.3011 292.119 50.5 291.534 50.5ZM292.902 37.9342H301.081C301.502 37.9342 301.911 37.747 302.309 37.3726C302.707 36.9748 303.035 36.4483 303.292 35.7931C303.549 35.1145 303.678 34.3774 303.678 33.5818C303.678 32.5522 303.397 31.6981 302.836 31.0195C302.298 30.3175 301.713 29.9665 301.081 29.9665H292.973L293.394 28.8433V38.7766L292.902 37.9342ZM328.072 25.8247C328.611 25.8247 329.09 26.0353 329.512 26.4565C329.956 26.8543 330.178 27.3691 330.178 28.0009C330.178 28.2115 330.143 28.4338 330.073 28.6678C330.026 28.8784 329.933 29.089 329.792 29.2996L321.825 40.7071L322.456 38.2852V48.3589C322.456 48.9673 322.246 49.4821 321.825 49.9033C321.427 50.3011 320.959 50.5 320.421 50.5C319.836 50.5 319.333 50.3011 318.911 49.9033C318.514 49.4821 318.315 48.9673 318.315 48.3589V38.566L318.595 39.6892L311.014 29.6155C310.78 29.3113 310.616 29.0188 310.522 28.738C310.429 28.4572 310.382 28.1998 310.382 27.9658C310.382 27.334 310.628 26.8192 311.119 26.4214C311.611 26.0236 312.114 25.8247 312.628 25.8247C313.284 25.8247 313.857 26.1523 314.348 26.8075L321.088 36.109L320.105 35.9686L326.317 26.8777C326.809 26.1757 327.394 25.8247 328.072 25.8247ZM335.398 42.7429C334.602 42.7429 334.169 42.2983 334.099 41.4091L333.081 28.4923C333.034 27.7669 333.222 27.1585 333.643 26.6671C334.087 26.1757 334.661 25.93 335.363 25.93C336.065 25.93 336.638 26.1757 337.083 26.6671C337.527 27.1585 337.714 27.7669 337.644 28.4923L336.661 41.4091C336.591 42.2983 336.17 42.7429 335.398 42.7429ZM335.152 50.5C334.474 50.5 333.947 50.3245 333.573 49.9735C333.222 49.5991 333.046 49.0726 333.046 48.394V47.7973C333.046 47.1187 333.222 46.6039 333.573 46.2529C333.947 45.8785 334.474 45.6913 335.152 45.6913H335.608C336.287 45.6913 336.802 45.8785 337.153 46.2529C337.527 46.6039 337.714 47.1187 337.714 47.7973V48.394C337.714 49.0726 337.527 49.5991 337.153 49.9735C336.802 50.3245 336.287 50.5 335.608 50.5H335.152Z" fill="white"/>
<path d="M362.2 4.2C363.1 5.1 363.1 6.5 362.2 7.4L350 19.6C349.1 20.5 347.7 20.5 346.8 19.6C345.9 18.7 345.9 17.3 346.8 16.4L359 4.2C359.9 3.3 361.3 3.3 362.2 4.2Z" fill="white"/>
<path d="M341.6 0C342.9 0 343.9 1 343.9 2.3V13.3C343.9 14.6 342.9 15.6 341.6 15.6C340.3 15.6 339.3 14.6 339.3 13.3V2.3C339.3 1 340.3 0 341.6 0Z" fill="white"/>
<path d="M366.9 25.3C366.9 24 365.9 23 364.6 23H353.6C352.3 23 351.3 24 351.3 25.3C351.3 26.6 352.3 27.6 353.6 27.6H364.6C365.9 27.6 366.9 26.6 366.9 25.3Z" fill="white"/>
<g style="mix-blend-mode:multiply" opacity="0.6">
<path d="M289.6 294.3C289.6 281.5 279.6 270 267.3 269C231.2 266 194.9 265.9 158.8 268.6C154.4 268.9 150.4 270.6 146.9 273.2C141.6 272 136.2 270.8 130.9 269.8C133.5 274.5 136 279.2 138.6 284C137.3 287.1 136.6 290.4 136.6 293.9C136.6 297.4 136.6 294.7 136.6 295.2V341.1C136.6 347.4 141.5 352 147.6 351.4C191.2 347.5 235 347.6 278.5 351.9C284.6 352.5 289.5 348 289.5 341.7V297.3C289.6 296.4 289.7 295.5 289.7 294.5L289.6 294.3Z" fill="#00BEC6"/>
</g>
<path d="M293 289.4C293 276.6 282.6 266.3 269.9 266.3H157.4C152.9 266.3 148.6 267.6 145.1 269.9L128.4 264.8L136.4 279.8C135 282.7 134.3 286 134.3 289.4C134.3 292.8 134.3 290.2 134.3 290.7V336.6C134.3 342.9 139.4 348 145.7 348H281.5C287.8 348 292.9 342.9 292.9 336.6V292.2C293 291.3 293.1 290.3 293.1 289.4H293Z" fill="#FFE400"/>
<path d="M265.5 348L183.8 266.3H171.5L253.2 348H265.5Z" fill="#FFCC00"/>
<path d="M292.8 320.8L238.2 266.3H225.9L292.8 333.2V320.8Z" fill="#FFCC00"/>
<path d="M281.4 348C284.5 348 287.4 346.7 289.4 344.7L211 266.3H198.7L280.4 348H281.4Z" fill="#FFCC00"/>
<path d="M292.8 293.6L265.5 266.3H253.1L292.8 306V293.6Z" fill="#FFCC00"/>
<path d="M226 348H238.3L156.6 266.3C154.9 266.3 153.2 266.6 151.5 267C151.1 267.1 150.7 267.2 150.3 267.3C149.1 267.7 148 268.1 146.9 268.7L226 347.8V348Z" fill="#FFCC00"/>
<path d="M134.2 327.6V336.6C134.2 338 134.5 339.4 135 340.7L141.6 347.3C142.9 347.8 144.2 348.1 145.7 348.1H154.7L134.3 327.7L134.2 327.6Z" fill="#FFCC00"/>
<path d="M136.3 279.8C136 280.5 135.7 281.2 135.5 281.9C135.3 282.6 135 283.4 134.9 284.1L198.8 348H211.1L128.9 265.8L136.3 279.8Z" fill="#FFCC00"/>
<path d="M134.2 300.4V312.7L169.5 348H181.8L134.2 300.4Z" fill="#FFCC00"/>
<path d="M162.011 300.816C162.211 300.816 162.365 300.878 162.473 301.001C162.596 301.124 162.658 301.278 162.658 301.463V316.26C162.658 316.491 162.581 316.676 162.427 316.815C162.288 316.938 162.126 317 161.941 317C161.849 317 161.749 316.985 161.641 316.954C161.533 316.908 161.448 316.846 161.386 316.769L151.075 302.874L151.468 302.666V316.376C151.468 316.545 151.406 316.692 151.283 316.815C151.16 316.938 151.006 317 150.821 317C150.62 317 150.458 316.938 150.335 316.815C150.227 316.692 150.173 316.545 150.173 316.376V301.51C150.173 301.278 150.243 301.109 150.381 301.001C150.52 300.878 150.674 300.816 150.844 300.816C150.936 300.816 151.036 300.839 151.144 300.885C151.252 300.916 151.337 300.978 151.399 301.07L161.595 314.804L161.363 315.22V301.463C161.363 301.278 161.425 301.124 161.548 301.001C161.687 300.878 161.841 300.816 162.011 300.816ZM181.421 308.908C181.421 310.126 181.228 311.243 180.843 312.26C180.473 313.262 179.941 314.141 179.248 314.896C178.554 315.636 177.729 316.214 176.774 316.63C175.834 317.031 174.801 317.231 173.676 317.231C172.55 317.231 171.51 317.031 170.554 316.63C169.614 316.214 168.797 315.636 168.104 314.896C167.41 314.141 166.871 313.262 166.485 312.26C166.115 311.243 165.93 310.126 165.93 308.908C165.93 307.69 166.115 306.581 166.485 305.579C166.871 304.561 167.41 303.683 168.104 302.943C168.797 302.188 169.614 301.61 170.554 301.209C171.51 300.793 172.55 300.585 173.676 300.585C174.801 300.585 175.834 300.793 176.774 301.209C177.729 301.61 178.554 302.188 179.248 302.943C179.941 303.683 180.473 304.561 180.843 305.579C181.228 306.581 181.421 307.69 181.421 308.908ZM179.941 308.908C179.941 307.536 179.671 306.334 179.132 305.301C178.608 304.253 177.876 303.436 176.936 302.851C175.995 302.265 174.909 301.972 173.676 301.972C172.458 301.972 171.371 302.265 170.416 302.851C169.476 303.436 168.736 304.253 168.196 305.301C167.672 306.334 167.41 307.536 167.41 308.908C167.41 310.28 167.672 311.49 168.196 312.538C168.736 313.571 169.476 314.38 170.416 314.965C171.371 315.551 172.458 315.844 173.676 315.844C174.909 315.844 175.995 315.551 176.936 314.965C177.876 314.38 178.608 313.571 179.132 312.538C179.671 311.49 179.941 310.28 179.941 308.908ZM189.053 317C188.837 317 188.66 316.931 188.521 316.792C188.398 316.653 188.336 316.491 188.336 316.306V301.579H189.769V316.306C189.769 316.491 189.7 316.653 189.561 316.792C189.423 316.931 189.253 317 189.053 317ZM183.55 302.134C183.365 302.134 183.203 302.072 183.065 301.949C182.926 301.826 182.856 301.664 182.856 301.463C182.856 301.278 182.926 301.124 183.065 301.001C183.203 300.878 183.365 300.816 183.55 300.816H194.555C194.74 300.816 194.902 300.878 195.041 301.001C195.179 301.124 195.249 301.286 195.249 301.486C195.249 301.687 195.179 301.849 195.041 301.972C194.902 302.08 194.74 302.134 194.555 302.134H183.55ZM205.236 317C205.02 317 204.842 316.931 204.704 316.792C204.58 316.653 204.519 316.491 204.519 316.306V301.51C204.519 301.325 204.588 301.163 204.727 301.024C204.866 300.885 205.027 300.816 205.212 300.816H213.628C213.828 300.816 213.99 300.885 214.114 301.024C214.252 301.147 214.322 301.309 214.322 301.51C214.322 301.695 214.252 301.856 214.114 301.995C213.99 302.118 213.828 302.18 213.628 302.18H205.837L205.929 302.041V308.191L205.814 307.983H212.588C212.788 307.983 212.95 308.053 213.073 308.191C213.212 308.315 213.281 308.469 213.281 308.654C213.281 308.854 213.212 309.016 213.073 309.139C212.95 309.263 212.788 309.324 212.588 309.324H205.767L205.929 309.139V316.306C205.929 316.491 205.86 316.653 205.721 316.792C205.598 316.931 205.436 317 205.236 317ZM231.838 308.908C231.838 310.126 231.645 311.243 231.26 312.26C230.89 313.262 230.358 314.141 229.665 314.896C228.971 315.636 228.146 316.214 227.191 316.63C226.25 317.031 225.218 317.231 224.093 317.231C222.967 317.231 221.927 317.031 220.971 316.63C220.031 316.214 219.214 315.636 218.521 314.896C217.827 314.141 217.288 313.262 216.902 312.26C216.532 311.243 216.347 310.126 216.347 308.908C216.347 307.69 216.532 306.581 216.902 305.579C217.288 304.561 217.827 303.683 218.521 302.943C219.214 302.188 220.031 301.61 220.971 301.209C221.927 300.793 222.967 300.585 224.093 300.585C225.218 300.585 226.25 300.793 227.191 301.209C228.146 301.61 228.971 302.188 229.665 302.943C230.358 303.683 230.89 304.561 231.26 305.579C231.645 306.581 231.838 307.69 231.838 308.908ZM230.358 308.908C230.358 307.536 230.088 306.334 229.549 305.301C229.025 304.253 228.293 303.436 227.353 302.851C226.412 302.265 225.326 301.972 224.093 301.972C222.875 301.972 221.788 302.265 220.833 302.851C219.892 303.436 219.153 304.253 218.613 305.301C218.089 306.334 217.827 307.536 217.827 308.908C217.827 310.28 218.089 311.49 218.613 312.538C219.153 313.571 219.892 314.38 220.833 314.965C221.788 315.551 222.875 315.844 224.093 315.844C225.326 315.844 226.412 315.551 227.353 314.965C228.293 314.38 229.025 313.571 229.549 312.538C230.088 311.49 230.358 310.28 230.358 308.908ZM246.557 300.816C246.772 300.816 246.942 300.885 247.065 301.024C247.189 301.147 247.25 301.309 247.25 301.51V311.081C247.25 312.222 246.98 313.255 246.441 314.179C245.901 315.104 245.177 315.844 244.268 316.399C243.358 316.938 242.333 317.208 241.193 317.208C240.052 317.208 239.019 316.938 238.095 316.399C237.185 315.844 236.461 315.104 235.921 314.179C235.382 313.255 235.112 312.222 235.112 311.081V301.51C235.112 301.309 235.174 301.147 235.297 301.024C235.436 300.885 235.621 300.816 235.852 300.816C236.037 300.816 236.199 300.885 236.338 301.024C236.476 301.147 236.546 301.309 236.546 301.51V311.081C236.546 311.975 236.754 312.777 237.17 313.486C237.601 314.195 238.172 314.765 238.881 315.197C239.59 315.613 240.36 315.821 241.193 315.821C242.056 315.821 242.842 315.613 243.551 315.197C244.26 314.765 244.823 314.195 245.239 313.486C245.67 312.777 245.886 311.975 245.886 311.081V301.51C245.886 301.309 245.948 301.147 246.071 301.024C246.194 300.885 246.356 300.816 246.557 300.816ZM263.432 300.816C263.632 300.816 263.786 300.878 263.894 301.001C264.017 301.124 264.079 301.278 264.079 301.463V316.26C264.079 316.491 264.002 316.676 263.848 316.815C263.709 316.938 263.547 317 263.362 317C263.27 317 263.17 316.985 263.062 316.954C262.954 316.908 262.869 316.846 262.807 316.769L252.496 302.874L252.889 302.666V316.376C252.889 316.545 252.827 316.692 252.704 316.815C252.581 316.938 252.427 317 252.242 317C252.041 317 251.879 316.938 251.756 316.815C251.648 316.692 251.594 316.545 251.594 316.376V301.51C251.594 301.278 251.664 301.109 251.802 301.001C251.941 300.878 252.095 300.816 252.265 300.816C252.357 300.816 252.457 300.839 252.565 300.885C252.673 300.916 252.758 300.978 252.82 301.07L263.015 314.804L262.784 315.22V301.463C262.784 301.278 262.846 301.124 262.969 301.001C263.108 300.878 263.262 300.816 263.432 300.816ZM275.004 300.816C276.145 300.816 277.139 301.032 277.987 301.463C278.85 301.895 279.559 302.496 280.114 303.267C280.668 304.022 281.077 304.885 281.339 305.856C281.616 306.827 281.755 307.844 281.755 308.908C281.755 310.388 281.509 311.744 281.015 312.977C280.537 314.195 279.798 315.174 278.796 315.913C277.809 316.638 276.545 317 275.004 317H269.108C268.924 317 268.762 316.931 268.623 316.792C268.484 316.653 268.415 316.491 268.415 316.306V301.51C268.415 301.325 268.484 301.163 268.623 301.024C268.762 300.885 268.924 300.816 269.108 300.816H275.004ZM274.773 315.636C276.083 315.636 277.139 315.335 277.94 314.734C278.742 314.133 279.328 313.324 279.697 312.307C280.083 311.274 280.275 310.141 280.275 308.908C280.275 308.014 280.168 307.166 279.952 306.365C279.751 305.548 279.428 304.831 278.981 304.215C278.549 303.583 277.979 303.089 277.27 302.735C276.576 302.365 275.744 302.18 274.773 302.18H269.71L269.871 301.972V315.867L269.733 315.636H274.773Z" fill="#F91A6F"/>
<g style="mix-blend-mode:multiply" opacity="0.2">
<path d="M247.6 104.1C213.6 70.1 158.2 70.1 124.1 104.1C92.6 135.6 90.3 185.2 116.9 219.4C116.8 219.4 116.7 219.6 116.6 219.7L79.8 256.5C79.5 256.5 79.3 256.4 79 256.3C78.8 256.3 78.7 256.3 78.5 256.3C78 256.3 77.6 256.2 77.1 256.1C77 256.1 76.8 256.1 76.7 256.1C76.1 256.1 75.6 256.1 75 256.1H74.6C74 256.1 73.5 256.1 72.9 256.1C72.9 256.1 72.7 256.1 72.6 256.1C72.3 256.1 72.1 256.1 71.8 256.1C70.2 256.4 68.5 256.8 67 257.4C66.8 257.4 66.6 257.6 66.4 257.7C66 257.9 65.6 258.1 65.1 258.3C65 258.3 64.8 258.5 64.7 258.5C64.2 258.8 63.8 259 63.3 259.3C63.2 259.3 63.1 259.5 63 259.5C62.5 259.8 62.1 260.1 61.6 260.5C61.1 260.9 60.5 261.4 60 261.9L6 315.9C5.5 316.4 5 316.9 4.6 317.5C4.3 317.9 4 318.3 3.7 318.7C3.6 318.9 3.4 319 3.3 319.2C3 319.6 2.8 320.1 2.5 320.5C2.5 320.7 2.3 320.8 2.2 321C2 321.4 1.8 321.8 1.6 322.2C1.6 322.4 1.4 322.6 1.3 322.8C0.699999 324.4 0.2 326 0 327.6C0 327.9 0 328.2 0 328.4C0 328.4 0 328.6 0 328.7C0 329.3 0 329.8 0 330.4C0 330.5 0 330.7 0 330.8C0 331.4 0 331.9 0 332.4C0 332.5 0 332.7 0 332.8C0 333.3 0.100001 333.7 0.200001 334.2C0.200001 334.4 0.200001 334.5 0.200001 334.7C0.300001 335.2 0.399998 335.7 0.599998 336.2C0.599998 336.4 0.699999 336.6 0.799999 336.8C0.799999 336.8 0.799999 337 0.799999 337.1C1.1 337.9 1.4 338.7 1.7 339.4C1.7 339.4 1.7 339.6 1.8 339.6C2 339.9 2.1 340.3 2.3 340.6C2.5 341 2.7 341.3 2.9 341.7C3 341.9 3.2 342.1 3.3 342.3C3.6 342.7 3.9 343.2 4.3 343.6C4.3 343.6 4.5 343.8 4.5 343.9C4.9 344.4 5.3 344.9 5.8 345.3C13.9 353.4 27.1 353.4 35.3 345.3L89.3 291.3C89.8 290.8 90.3 290.3 90.7 289.7C90.9 289.5 91 289.3 91.1 289.1C91.4 288.7 91.6 288.4 91.9 288C92.1 287.7 92.2 287.4 92.4 287.2C92.6 286.9 92.8 286.6 92.9 286.3C93.1 286 93.2 285.6 93.4 285.3C93.5 285 93.7 284.8 93.8 284.5C94 284.1 94.1 283.7 94.2 283.3C94.2 283.1 94.4 282.9 94.4 282.6C94.5 282.1 94.6 281.7 94.8 281.2C94.8 281 94.8 280.9 94.9 280.7C95 280.2 95.1 279.7 95.1 279.1C95.1 279 95.1 278.9 95.1 278.7C95.1 278.1 95.1 277.6 95.2 277V276.8C95.2 276.2 95.2 275.6 95.2 275C95.2 275 95.2 275 95.2 274.9C95.2 273.8 94.9 272.7 94.7 271.7L131.5 234.9C131.5 234.9 131.7 234.7 131.8 234.6C166 261.3 215.7 258.9 247.1 227.4C281.1 193.4 281.1 138 247.1 103.9L247.6 104.1ZM185.9 237.4C145.8 237.4 113.3 204.9 113.3 164.8C113.3 124.7 145.8 92.2 185.9 92.2C226 92.2 258.5 124.7 258.5 164.8C258.5 204.9 226 237.4 185.9 237.4Z" fill="black"/>
</g>
<path d="M247.6 95.6C213.6 61.6 158.2 61.6 124.1 95.6C90.1001 129.6 90.1001 185 124.1 219.1C158.1 253.1 213.5 253.1 247.6 219.1C281.6 185.1 281.6 129.7 247.6 95.6ZM135.4 207.8C107.6 180 107.6 134.7 135.4 106.9C163.2 79.1 208.5 79.1 236.3 106.9C264.1 134.7 264.1 180 236.3 207.8C208.5 235.6 163.2 235.6 135.4 207.8Z" fill="#003362"/>
<path opacity="0.2" d="M161.6 106.9C151.8 116.7 151.8 132.6 161.6 142.4C171.4 152.2 187.3 152.2 197.1 142.4C206.9 132.6 206.9 116.7 197.1 106.9C187.3 97.1 171.4 97.1 161.6 106.9Z" fill="white"/>
<path opacity="0.2" d="M192.7 126.7C187.8 131.6 187.8 139.6 192.7 144.5C197.6 149.4 205.5 149.4 210.5 144.5C215.4 139.6 215.4 131.6 210.5 126.7C205.6 121.8 197.7 121.8 192.7 126.7Z" fill="white"/>
<path opacity="0.2" d="M166.2 195.2C162.5 198.9 162.5 204.9 166.2 208.6C169.9 212.3 175.9 212.3 179.6 208.6C183.3 204.9 183.3 198.9 179.6 195.2C175.9 191.5 169.9 191.5 166.2 195.2Z" fill="white"/>
<path d="M90.8001 267.7C86.6001 271.9 79.7001 271.9 75.5001 267.7C71.3001 263.5 71.3001 256.6 75.5001 252.4L116.6 211.3C120.8 207.1 127.7 207.1 131.9 211.3C136.1 215.5 136.1 222.4 131.9 226.6L90.8001 267.7Z" fill="#002352"/>
<g style="mix-blend-mode:multiply" opacity="0.4">
<path d="M135.1 217.9L96.4001 256.6C95.4001 254.5 94.0001 252.6 92.3001 250.9C89.5001 248.1 86.2001 246.2 82.6001 245.2L76.4001 251.4L75.5001 252.3C71.3001 256.5 71.3001 263.4 75.5001 267.6C79.7001 271.8 86.6001 271.8 90.8001 267.6L131.9 226.5C134.3 224.1 135.3 221 135 217.9H135.1Z" fill="#001343"/>
</g>
<path d="M35.6 337C27.5 345.1 14.3 345.1 6.10002 337C-1.99998 328.9 -1.99998 315.7 6.10002 307.5L60.1 253.5C68.2 245.4 81.4 245.4 89.6 253.5C97.7 261.6 97.7 274.8 89.6 283L35.6 337Z" fill="#FFE400"/>
<path d="M90.1001 254C92.7001 261.3 91 269.8 85.2 275.6L31.2001 329.6C23.1 337.7 9.90005 337.7 1.70005 329.6C1.60005 329.5 1.40005 329.3 1.30005 329.1C2.30005 332 3.90005 334.7 6.20005 337C14.3001 345.1 27.5001 345.1 35.7001 337L89.7 283C97.7 275 97.8001 262.2 90.1001 254Z" fill="#FFCE00"/>
<path d="M67.1 249C64.6 250 62.3 251.5 60.2 253.6L6.19997 307.6C4.19997 309.6 2.69998 312 1.59998 314.5L67 249.1L67.1 249Z" fill="#FFFF3F"/>
<path d="M71.9 247.7L0.300019 319.3C-0.199981 322.5 0.100022 325.7 1.10002 328.8L81.4 248.5C78.3 247.5 75.1 247.2 71.9 247.7Z" fill="#FFFF3F"/>
<path d="M24.6001 325.5C22.8001 327.3 19.9001 327.3 18.2001 325.5C16.4001 323.7 16.4001 320.8 18.2001 319.1L27.6001 309.7C29.4001 307.9 32.3001 307.9 34.0001 309.7C35.8001 311.5 35.8001 314.4 34.0001 316.1L24.6001 325.5Z" fill="#FFFF3F"/>
<path d="M42.9001 307.2C41.1001 309 38.2001 309 36.5001 307.2C34.7001 305.4 34.7001 302.5 36.5001 300.8L75.6002 261.7C77.4002 259.9 80.3001 259.9 82.0001 261.7C83.8001 263.5 83.8001 266.4 82.0001 268.1L42.9001 307.2Z" fill="#FFFF3F"/>
<g opacity="0.2">
<path d="M94.2001 246.2C93.3001 247.1 91.8001 247.1 90.9001 246.2C90.0001 245.3 90.0001 243.8 90.9001 242.9L95.7001 238.1C96.6001 237.2 98.1001 237.2 99.0001 238.1C99.9001 239 99.9001 240.5 99.0001 241.4L94.2001 246.2Z" fill="white"/>
<path d="M103.6 236.8C102.7 237.7 101.2 237.7 100.3 236.8C99.4 235.9 99.4 234.4 100.3 233.5L120.3 213.5C121.2 212.6 122.7 212.6 123.6 213.5C124.5 214.4 124.5 215.9 123.6 216.8L103.6 236.8Z" fill="white"/>
</g>
<g opacity="0.2">
<path d="M185.9 240.1C174.1 240.1 162.2 237.6 151.1 232.4C149.8 231.8 149.2 230.2 149.8 228.9C150.4 227.6 152 227 153.3 227.6C177.2 238.6 204.7 236.9 227 223C228.2 222.2 229.9 222.6 230.6 223.8C231.4 225 231 226.7 229.8 227.4C216.4 235.8 201.2 240 185.9 240V240.1ZM235.1 223.2C234.3 223.2 233.5 222.9 233 222.2C232.1 221 232.3 219.4 233.5 218.5C236 216.6 238.4 214.4 240.7 212.2C241.7 211.2 243.4 211.2 244.4 212.2C245.4 213.2 245.4 214.9 244.4 215.9C242 218.3 239.4 220.6 236.8 222.7C236.3 223.1 235.7 223.3 235.2 223.3L235.1 223.2ZM113.7 194.6C112.7 194.6 111.8 194 111.3 193.1C96.2 161.5 102.7 123.6 127.4 98.9C146.4 79.9 173.6 71.3 200.2 75.9C201.6 76.2 202.6 77.5 202.4 79C202.1 80.4 200.8 81.4 199.3 81.2C174.4 76.9 148.9 84.9 131.1 102.7C107.9 125.9 101.9 161.3 116 190.9C116.6 192.2 116 193.8 114.8 194.4C114.4 194.6 114 194.7 113.7 194.7V194.6ZM242.6 103.4C241.9 103.4 241.2 103.1 240.7 102.6C234.3 96.2 226.9 91 218.8 87.2C217.5 86.6 216.9 85 217.5 83.7C218.1 82.4 219.7 81.8 221 82.4C229.7 86.5 237.5 92 244.4 98.8C245.4 99.8 245.4 101.5 244.4 102.5C243.9 103 243.2 103.3 242.5 103.3L242.6 103.4Z" fill="white"/>
</g>
<path d="M154.213 182C153.261 182 152.461 181.676 151.814 181.029C151.167 180.344 150.844 179.507 150.844 178.517V151.679L152.043 151.964L141.022 165.612L140.737 164.869H160.951C161.864 164.869 162.626 165.174 163.235 165.783C163.844 166.392 164.148 167.154 164.148 168.067C164.148 168.943 163.844 169.685 163.235 170.294C162.626 170.865 161.864 171.151 160.951 171.151H135.997C135.198 171.151 134.417 170.827 133.656 170.18C132.933 169.533 132.571 168.733 132.571 167.782C132.571 166.944 132.857 166.183 133.428 165.498L151.472 143.399C151.776 142.98 152.176 142.657 152.671 142.428C153.166 142.162 153.718 142.029 154.327 142.029C155.317 142.029 156.116 142.371 156.725 143.057C157.372 143.704 157.696 144.522 157.696 145.512V178.517C157.696 179.507 157.353 180.344 156.668 181.029C156.021 181.676 155.202 182 154.213 182ZM183.1 182.571C179.826 182.571 177.047 181.714 174.763 180.001C172.517 178.25 170.804 175.833 169.624 172.75C168.444 169.628 167.854 166.05 167.854 162.014C167.854 157.941 168.444 154.363 169.624 151.279C170.804 148.196 172.517 145.797 174.763 144.084C177.047 142.333 179.826 141.458 183.1 141.458C186.374 141.458 189.134 142.333 191.38 144.084C193.664 145.797 195.396 148.196 196.576 151.279C197.756 154.363 198.346 157.941 198.346 162.014C198.346 166.05 197.756 169.628 196.576 172.75C195.396 175.833 193.664 178.25 191.38 180.001C189.134 181.714 186.374 182.571 183.1 182.571ZM183.1 175.719C184.699 175.719 186.069 175.224 187.211 174.234C188.391 173.206 189.305 171.684 189.952 169.666C190.599 167.61 190.923 165.06 190.923 162.014C190.923 158.931 190.599 156.38 189.952 154.363C189.305 152.345 188.391 150.841 187.211 149.852C186.069 148.824 184.699 148.31 183.1 148.31C181.539 148.31 180.169 148.824 178.989 149.852C177.808 150.841 176.895 152.345 176.248 154.363C175.6 156.38 175.277 158.931 175.277 162.014C175.277 165.06 175.6 167.61 176.248 169.666C176.895 171.684 177.808 173.206 178.989 174.234C180.169 175.224 181.539 175.719 183.1 175.719ZM222.857 182C221.906 182 221.106 181.676 220.459 181.029C219.812 180.344 219.488 179.507 219.488 178.517V151.679L220.688 151.964L209.667 165.612L209.381 164.869H229.595C230.509 164.869 231.27 165.174 231.879 165.783C232.489 166.392 232.793 167.154 232.793 168.067C232.793 168.943 232.489 169.685 231.879 170.294C231.27 170.865 230.509 171.151 229.595 171.151H204.642C203.842 171.151 203.062 170.827 202.301 170.18C201.577 169.533 201.216 168.733 201.216 167.782C201.216 166.944 201.501 166.183 202.072 165.498L220.116 143.399C220.421 142.98 220.821 142.657 221.316 142.428C221.811 142.162 222.362 142.029 222.972 142.029C223.961 142.029 224.761 142.371 225.37 143.057C226.017 143.704 226.341 144.522 226.341 145.512V178.517C226.341 179.507 225.998 180.344 225.313 181.029C224.666 181.676 223.847 182 222.857 182Z" fill="#F44A40"/>
</svg>
