<svg width="16" height="16" viewBox="0 0 16 16" fill="none" xmlns="http://www.w3.org/2000/svg">
<path d="M8.875 1H5.2C3.72986 1 2.99479 1 2.43328 1.28611C1.93935 1.53778 1.53778 1.93935 1.28611 2.43328C1 2.99479 1 3.72986 1 5.2V10.8C1 12.2702 1 13.0052 1.28611 13.5667C1.53778 14.0607 1.93935 14.4622 2.43328 14.7139C2.99479 15 3.72986 15 5.2 15H10.8C12.2702 15 13.0052 15 13.5667 14.7139C14.0607 14.4622 14.4622 14.0607 14.7139 13.5667C15 13.0052 15 12.2702 15 10.8V7.125" stroke="#3563E9" stroke-linecap="round" stroke-linejoin="round"/>
<path d="M1 10.5714L4.75628 9.10013C5.09799 8.9663 5.65201 8.9663 5.99372 9.10013L8.875 10.2287M8.875 10.2287L11.3188 9.27148C11.6605 9.13766 12.2145 9.13766 12.5562 9.27148L15 10.2287M8.875 10.2287L10.8438 10.9998" stroke="#3563E9" stroke-linecap="round" stroke-linejoin="round"/>
<path d="M12.9961 1V3M12.9961 3V5M12.9961 3H10.9961M12.9961 3H14.9961" stroke="#3563E9" stroke-linecap="round" stroke-linejoin="round"/>
</svg>
